<?xml version="1.0" standalone="no"?><!DOCTYPE svg PUBLIC "-//W3C//DTD SVG 1.1//EN" "http://www.w3.org/Graphics/SVG/1.1/DTD/svg11.dtd"><svg t="1733647988538" class="icon" viewBox="0 0 1024 1024" version="1.1" xmlns="http://www.w3.org/2000/svg" p-id="6015" xmlns:xlink="http://www.w3.org/1999/xlink" width="200" height="200"><path d="M331.957 532.887l151 25.398V427.027h-151zM513.563 563.242l178.382 28.774V427.027H513.563zM331.957 397.066h151V266.402l-151 24.903zM513.563 397.066h178.382V232.078l-178.382 29.961zM744.775 857.952H279.127c-16.965 0-37.402 29.367-37.402 46.234 0 16.863 20.438 46.23 37.402 46.23h465.648c17.063 0 37.5-29.367 37.5-46.23 0-16.867-20.437-46.234-37.5-46.234z" fill="" p-id="6016"></path><path d="M930.648 55.047H93.355C48.512 55.047 12 91.16 12 135.508v569.871c0 44.246 36.512 80.359 81.355 80.359h837.293c44.844 0 81.352-36.113 81.352-80.359V135.508c0-44.348-36.508-80.461-81.352-80.461z m-6.746 624.141c0 10.715-8.73 19.445-19.645 19.445H119.844c-10.914 0-19.742-8.73-19.742-19.445V161.699c0-10.715 8.828-19.445 19.742-19.445h784.414c10.914 0 19.645 8.73 19.645 19.445v517.489z" fill="" p-id="6017"></path></svg>