<?xml version="1.0" standalone="no"?><!DOCTYPE svg PUBLIC "-//W3C//DTD SVG 1.1//EN" "http://www.w3.org/Graphics/SVG/1.1/DTD/svg11.dtd"><svg t="1733130011879" class="icon" viewBox="0 0 1024 1024" version="1.1" xmlns="http://www.w3.org/2000/svg" p-id="18621" xmlns:xlink="http://www.w3.org/1999/xlink" width="200" height="200"><path d="M512 512m-512 0a512 512 0 1 0 1024 0 512 512 0 1 0-1024 0Z" fill="#FFFFFF" p-id="18622"></path><path d="M544.8192 305.3568c-25.2672-18.013867-54.161067-30.353067-86.690133-37.0176-57.856-11.844267-100.8896-7.1424-147.6352 16.554667-31.163733 15.803733-52.317867 30.4384-63.479467 43.912533 47.6672-19.336533 83.157333-29.550933 106.453333-30.634667 21.384533-0.9984 50.594133 5.0944 87.6288 18.286934-2.926933 1.058133-5.819733 2.176-8.686933 3.345066-30.395733-2.705067-61.0816 1.1008-92.066133 11.434667-56.029867 18.670933-90.948267 44.253867-119.5776 88.149333-19.089067 29.2608-30.088533 52.522667-33.015467 69.768534 31.616-40.584533 57.2416-67.165867 76.868267-79.761067 17.681067-11.3408 45.294933-20.5312 82.8416-27.5712-2.261333 2.688-4.462933 5.435733-6.6048 8.234667-26.487467 12.791467-50.176 30.976-71.074134 54.536533-39.185067 44.1856-56.635733 83.797333-59.477333 136.132267-1.8944 34.884267 0.196267 60.526933 6.2976 76.928 7.0912-50.952533 15.991467-86.784 26.692267-107.511467 9.378133-18.141867 27.904-39.227733 55.586133-63.249067-0.6656 3.985067-1.220267 8.004267-1.672533 12.0576-15.223467 23.415467-25.838933 49.783467-31.837867 79.095467-11.844267 57.856-7.1424 100.8896 16.554667 147.6352 15.803733 31.163733 30.4384 52.317867 43.912533 63.479467-19.336533-47.6672-29.550933-83.157333-30.634667-106.453334-0.930133-19.84 4.2496-46.404267 15.5392-79.701333 1.664 4.283733 3.456 8.4992 5.376 12.6464-0.878933 26.504533 3.1744 53.230933 12.16 80.187733 18.670933 56.029867 44.253867 90.948267 88.149334 119.5776 29.2608 19.089067 52.522667 30.088533 69.768533 33.015467-40.584533-31.616-67.165867-57.2416-79.761067-76.868267-10.5216-16.401067-19.191467-41.352533-26.0096-74.862933 3.848533 3.012267 7.799467 5.896533 11.844267 8.644267 12.356267 22.4768 28.817067 42.820267 49.365333 61.047466 44.1856 39.185067 83.797333 56.635733 136.132267 59.477334 34.884267 1.8944 60.526933-0.196267 76.928-6.2976-50.952533-7.0912-86.784-15.991467-107.511467-26.692267-17.211733-8.891733-37.0688-26.026667-59.5712-51.396267a222.464 222.464 0 0 0 14.600534 1.373867c21.8368 13.149867 46.122667 22.468267 72.874666 27.946667 57.856 11.844267 100.8896 7.1424 147.6352-16.554667 31.163733-15.803733 52.317867-30.4384 63.479467-43.912533-47.6672 19.336533-83.157333 29.550933-106.453333 30.634666-19.541333 0.913067-45.6192-4.096-78.2336-15.035733 4.283733-1.8176 8.490667-3.7632 12.629333-5.8368 26.026667 0.682667 52.266667-3.3792 78.728533-12.202667 56.029867-18.670933 90.948267-44.253867 119.5776-88.149333 19.089067-29.2608 30.088533-52.522667 33.015467-69.768533-31.616 40.584533-57.2416 67.165867-76.868267 79.752533-16.8448 10.8032-42.717867 19.6608-77.610666 26.564267 2.5344-3.328 4.9664-6.7328 7.313066-10.205867 24.098133-12.578133 45.815467-29.764267 65.134934-51.5584 39.185067-44.1856 56.635733-83.797333 59.477333-136.132267 1.8944-34.884267-0.196267-60.526933-6.2976-76.928-7.0912 50.952533-15.991467 86.784-26.692267 107.511467-9.437867 18.269867-28.16 39.517867-56.1664 63.752533 0.4864-3.618133 0.878933-7.261867 1.186134-10.9312 15.7952-23.816533 26.769067-50.730667 32.904533-80.725333 11.844267-57.856 7.1424-100.8896-16.554667-147.6352-15.803733-31.163733-30.4384-52.317867-43.912533-63.479467 19.336533 47.6672 29.550933 83.157333 30.634667 106.453334 0.981333 21.060267-4.9152 49.7152-17.698134 85.9648-1.194667-3.012267-2.4576-5.998933-3.780266-8.951467 2.3808-29.764267-1.4848-59.810133-11.5968-90.146133-18.670933-56.029867-44.253867-90.948267-88.149334-119.5776-29.2608-19.089067-52.522667-30.088533-69.768533-33.015467 40.584533 31.616 67.165867 57.2416 79.761067 76.868267 11.588267 18.0736 20.9408 46.532267 28.040533 85.384533a215.637333 215.637333 0 0 0-6.971733-5.461333c-12.859733-27.972267-31.624533-52.8896-56.277334-74.752-44.1856-39.185067-83.797333-56.635733-136.132266-59.477334-34.884267-1.8944-60.526933 0.196267-76.928 6.2976 50.952533 7.0912 86.784 15.991467 107.511466 26.692267 19.1744 9.9072 41.634133 30.037333 67.370667 60.398933a233.002667 233.002667 0 0 0-8.576-1.288533zM512 1008.7168C237.6704 1008.7168 15.2832 786.3296 15.2832 512S237.6704 15.2832 512 15.2832 1008.7168 237.6704 1008.7168 512 786.3296 1008.7168 512 1008.7168zM201.224533 779.306667c-7.0144-26.743467-16.5632-44.578133-28.629333-53.504-18.107733-13.380267-56.7296-38.971733-60.962133-57.856-4.232533-18.884267-15.9488-65.7152-4.232534-81.621334 11.716267-15.906133 38.280533-40.977067 39.1936-61.7472 0.913067-20.770133-2.167467-30.754133-18.56-44.9024s5.725867-18.338133 5.973334-32.597333c0.247467-14.2592 0.4352-70.016-5.973334-91.332267 10.368-15.624533 35.8912-47.2832 76.586667-94.967466 22.3488 0.682667 36.804267-0.853333 43.383467-4.599467 9.864533-5.623467 10.914133-19.268267 8.0128-28.910933-1.937067-6.4256-7.748267-14.267733-17.4336-23.534934l-3.968 7.748267c2.645333 7.057067 3.968 12.322133 3.968 15.786667 0 5.1968-4.078933 14.037333-7.850667 13.806933s1.655467-24.6016-3.771733-29.585067c-3.618133-3.319467-8.379733-5.905067-14.293334-7.748266-3.456 4.7616-3.456 9.8816 0 15.342933 5.179733 8.192 6.237867 19.541333-1.809066 21.998933-8.046933 2.4576-18.491733 3.268267-21.700267-2.850133s-2.56-17.211733 3.592533-14.088533c6.152533 3.131733 10.026667 8.6784 11.869867 3.131733s0.196267-12.8768-11.869867-15.786667c-12.066133-2.909867-20.155733 7.714133-20.155733 15.786667 0 8.064 1.015467 19.771733 7.287467 25.514667-3.541333 4.573867-29.269333 33.501867-77.166934 86.792533-7.381333 22.161067-11.656533 43.6224-12.834133 64.384s-2.5856 38.6048-4.224 53.5296c-5.307733-0.162133-10.197333-3.6352-14.651733-10.410667-4.462933-6.775467-8.200533-15.4112-11.229867-25.898666-4.898133-2.568533-8.226133-1.373867-9.992533 3.584-2.645333 7.432533-4.701867 33.032533 2.645333 41.915733s34.935467 18.824533 41.557333 24.840533c6.621867 6.016 15.300267 16.068267 13.422934 27.178667-1.877333 11.1104-2.1504 26.018133-13.422934 25.617067S71.364267 532.48 75.554133 527.274667c4.181333-5.205333 3.8912 0.529067 10.094934 2.039466 6.212267 1.5104 13.687467 0.0768 13.149866-6.4256s-9.941333-28.407467-25.736533-28.407466-29.7728 5.137067-31.249067 22.101333c-1.476267 16.964267 10.308267 2.619733 17.937067 12.731733 2.4064 3.191467 1.373867 17.28 7.022933 24.704 8.763733 11.52 23.0912 1.809067 23.0912 8.814934s-8.712533 37.154133-7.313066 66.158933c1.408 28.996267 12.288 78.702933 39.918933 110.4896s51.8144 41.7792 63.761067 41.719467c7.978667-0.042667 12.970667-0.674133 14.993066-1.8944z m54.843734-574.293334c26.743467-7.0144 44.578133-16.5632 53.504-28.629333 13.380267-18.107733 38.971733-56.7296 57.856-60.962133 18.884267-4.232533 65.7152-15.9488 81.621333-4.232534 15.906133 11.716267 40.977067 38.280533 61.7472 39.1936 20.770133 0.913067 30.754133-2.167467 44.9024-18.56 14.148267-16.401067 18.338133 5.725867 32.597333 5.973334 14.2592 0.247467 70.016 0.4352 91.332267-5.973334 15.624533 10.368 47.2832 35.8912 94.967467 76.586667-0.682667 22.3488 0.853333 36.804267 4.599466 43.383467 5.623467 9.864533 19.268267 10.914133 28.910934 8.0128 6.4256-1.937067 14.267733-7.748267 23.534933-17.4336l-7.748267-3.968c-7.057067 2.645333-12.322133 3.968-15.786666 3.968-5.1968 0-14.037333-4.078933-13.806934-7.850667 0.2304-3.771733 24.6016 1.655467 29.585067-3.771733 3.319467-3.618133 5.905067-8.379733 7.748267-14.293334-4.7616-3.456-9.8816-3.456-15.342934 0-8.192 5.179733-19.541333 6.237867-21.998933-1.809066s-3.268267-18.491733 2.850133-21.700267c6.109867-3.2 17.211733-2.56 14.088534 3.592533-3.131733 6.152533-8.6784 10.026667-3.131734 11.869867s12.8768 0.196267 15.786667-11.869867c2.909867-12.066133-7.714133-20.155733-15.786667-20.155733-8.064 0-19.771733 1.015467-25.514666 7.287467-4.573867-3.541333-33.501867-29.269333-86.792534-77.166934-22.161067-7.381333-43.6224-11.656533-64.384-12.834133s-38.6048-2.5856-53.5296-4.224c0.162133-5.307733 3.6352-10.197333 10.410667-14.651733 6.775467-4.462933 15.4112-8.200533 25.898667-11.229867 2.568533-4.898133 1.373867-8.226133-3.584-9.992533-7.432533-2.645333-33.032533-4.701867-41.915734 2.645333s-18.824533 34.935467-24.840533 41.557333c-6.016 6.621867-16.068267 15.300267-27.178667 13.422934s-26.018133-2.1504-25.617066-13.422934 11.835733-22.6048 17.0496-18.423466-0.529067 3.8912-2.039467 10.094933c-1.5104 6.212267-0.0768 13.687467 6.4256 13.149867 6.5024-0.5376 28.407467-9.941333 28.407467-25.736534s-5.137067-29.7728-22.101334-31.249066c-16.964267-1.476267-2.619733 10.308267-12.731733 17.937066-3.191467 2.4064-17.28 1.373867-24.704 7.022934-11.52 8.763733-1.809067 23.0912-8.814933 23.0912s-37.154133-8.712533-66.158934-7.313067c-28.996267 1.408-78.702933 12.288-110.4896 39.918933-31.786667 27.630933-41.7792 51.8144-41.719466 63.761067 0.042667 7.970133 0.674133 12.962133 1.8944 14.984533z m574.293333 54.843734c7.0144 26.743467 16.5632 44.578133 28.629333 53.504 18.107733 13.380267 56.7296 38.971733 60.962134 57.856 4.232533 18.884267 15.9488 65.7152 4.232533 81.621333-11.716267 15.906133-38.280533 40.977067-39.1936 61.7472s2.167467 30.754133 18.56 44.9024c16.401067 14.148267-5.725867 18.338133-5.973333 32.597333-0.247467 14.2592-0.4352 70.016 5.973333 91.332267-10.368 15.624533-35.8912 47.2832-76.586667 94.967467-22.3488-0.682667-36.804267 0.853333-43.383466 4.599466-9.864533 5.623467-10.914133 19.268267-8.0128 28.910934 1.937067 6.4256 7.748267 14.267733 17.4336 23.534933l3.968-7.748267c-2.645333-7.057067-3.968-12.322133-3.968-15.786666 0-5.1968 4.078933-14.037333 7.850666-13.806934 3.771733 0.2304-1.655467 24.6016 3.771734 29.585067 3.618133 3.319467 8.379733 5.905067 14.293333 7.748267 3.456-4.7616 3.456-9.8816 0-15.342934-5.179733-8.192-6.237867-19.541333 1.809067-21.998933s18.491733-3.268267 21.700266 2.850133c3.2 6.109867 2.56 17.211733-3.592533 14.088534s-10.026667-8.6784-11.869867-3.131734-0.196267 12.8768 11.869867 15.786667c12.066133 2.909867 20.155733-7.714133 20.155733-15.786667 0-8.064-1.015467-19.771733-7.287466-25.514666 3.541333-4.573867 29.269333-33.501867 77.166933-86.792534 7.381333-22.161067 11.656533-43.6224 12.834133-64.384 1.1776-20.7616 2.5856-38.6048 4.224-53.5296 5.307733 0.162133 10.197333 3.6352 14.651734 10.410667s8.200533 15.4112 11.229866 25.898667c4.898133 2.568533 8.226133 1.373867 9.992534-3.584 2.645333-7.432533 4.701867-33.032533-2.645334-41.915734s-34.935467-18.824533-41.557333-24.840533c-6.621867-6.016-15.300267-16.068267-13.422933-27.178667 1.877333-11.1104 2.1504-26.018133 13.422933-25.617066 11.272533 0.401067 22.6048 11.835733 18.423467 17.0496-4.181333 5.205333-3.8912-0.529067-10.094934-2.039467-6.212267-1.5104-13.687467-0.0768-13.149866 6.4256 0.5376 6.5024 9.941333 28.407467 25.736533 28.407467s29.7728-5.137067 31.249067-22.101334c1.476267-16.964267-10.308267-2.619733-17.937067-12.731733-2.4064-3.191467-1.373867-17.28-7.022933-24.704-8.763733-11.52-23.0912-1.809067-23.0912-8.814933s8.712533-37.154133 7.313066-66.158934c-1.408-28.996267-12.288-78.702933-39.918933-110.4896-27.630933-31.786667-51.8144-41.7792-63.761067-41.719466-7.970133 0.042667-12.962133 0.674133-14.984533 1.8944z m-54.843733 574.293333c-26.743467 7.0144-44.578133 16.5632-53.504 28.629333-13.380267 18.107733-38.971733 56.7296-57.856 60.962134-18.884267 4.232533-65.7152 15.9488-81.621334 4.232533-15.906133-11.716267-40.977067-38.280533-61.7472-39.1936s-30.754133 2.167467-44.9024 18.56c-14.148267 16.401067-18.338133-5.725867-32.597333-5.973333-14.2592-0.247467-70.016-0.4352-91.332267 5.973333-15.624533-10.368-47.2832-35.8912-94.967466-76.586667 0.682667-22.3488-0.853333-36.804267-4.599467-43.383466-5.623467-9.864533-19.268267-10.914133-28.910933-8.0128-6.4256 1.937067-14.267733 7.748267-23.534934 17.4336l7.748267 3.968c7.057067-2.645333 12.322133-3.968 15.786667-3.968 5.1968 0 14.037333 4.078933 13.806933 7.850666-0.2304 3.771733-24.6016-1.655467-29.585067 3.771734-3.319467 3.618133-5.905067 8.379733-7.748266 14.293333 4.7616 3.456 9.8816 3.456 15.342933 0 8.192-5.179733 19.541333-6.237867 21.998933 1.809067s3.268267 18.491733-2.850133 21.700266c-6.109867 3.2-17.211733 2.56-14.088533-3.592533 3.131733-6.152533 8.6784-10.026667 3.131733-11.869867s-12.8768-0.196267-15.786667 11.869867 7.714133 20.155733 15.786667 20.155733 19.771733-1.015467 25.514667-7.287466c4.573867 3.541333 33.501867 29.269333 86.792533 77.166933 22.161067 7.381333 43.6224 11.656533 64.384 12.834133 20.7616 1.1776 38.6048 2.5856 53.5296 4.224-0.162133 5.307733-3.6352 10.197333-10.410667 14.651734-6.775467 4.462933-15.4112 8.200533-25.898666 11.229866-2.568533 4.898133-1.373867 8.226133 3.584 9.992534 7.432533 2.645333 33.032533 4.701867 41.915733-2.645334s18.824533-34.935467 24.840533-41.557333c6.016-6.621867 16.068267-15.300267 27.178667-13.422933 11.1104 1.877333 26.018133 2.1504 25.617067 13.422933-0.401067 11.272533-11.835733 22.6048-17.0496 18.423467-5.205333-4.181333 0.529067-3.8912 2.039466-10.094934 1.5104-6.212267 0.0768-13.687467-6.4256-13.149866s-28.407467 9.941333-28.407466 25.736533 5.137067 29.7728 22.101333 31.249067c16.964267 1.476267 2.619733-10.308267 12.731733-17.937067 3.191467-2.4064 17.28-1.373867 24.704-7.022933 11.52-8.763733 1.809067-23.0912 8.814934-23.0912s37.154133 8.712533 66.158933 7.313066 78.702933-12.288 110.4896-39.918933c31.786667-27.630933 41.7792-51.8144 41.719467-63.761067-0.042667-7.970133-0.674133-12.962133-1.8944-14.984533z" fill="#F5B246" p-id="18623"></path></svg>